<?xml version="1.0" encoding="utf-8"?>
<!-- Generator: Adobe Illustrator 16.0.4, SVG Export Plug-In . SVG Version: 6.00 Build 0)  -->
<!DOCTYPE svg PUBLIC "-//W3C//DTD SVG 1.1//EN" "http://www.w3.org/Graphics/SVG/1.1/DTD/svg11.dtd">
<svg version="1.1" id="Layer_1" xmlns="http://www.w3.org/2000/svg" xmlns:xlink="http://www.w3.org/1999/xlink" x="0px" y="0px"
	 width="79.299px" height="180.229px" viewBox="0 0 79.299 180.229" enable-background="new 0 0 79.299 180.229"
	 xml:space="preserve">
<path fill-rule="evenodd" clip-rule="evenodd" fill="#E2711C" d="M31.127,79.302C-0.932,71.45-9.744,33.03,11.828,11.585
	C23.834-0.352,41.988-3.386,56.986,3.987c15.287,7.514,24.159,24.16,21.988,41.252c-2.103,16.549-14.793,30.486-30.953,33.884
	c-2.591,0.543-5.255,0.74-7.885,1.096C37.133,79.914,34.13,79.607,31.127,79.302z M15.314,34.802
	c2.895,0.83,5.578,1.593,8.257,2.371c11.798,3.426,23.904,3.137,36.002,3.022c11.626-0.11,12.418-1.202,8.633-12.316
	C64.495,16.981,52.486,8.15,42.017,9.298C28.378,10.792,17.208,18.35,15.314,34.802z M66.383,48.931
	C49.404,50.696,33.352,49.25,17.302,45.1c1.667,11.085,13.006,18.066,21.384,18.994C50.856,65.44,62.366,59.332,66.383,48.931z"/>
<path fill-rule="evenodd" clip-rule="evenodd" fill="#E0E0E0" d="M31.127,79.302c3.003,0.306,6.006,0.612,9.008,0.917
	c-1.605,14.292-3.268,28.575-4.797,42.874c-1.161,10.857-2.149,21.733-3.221,32.601c-0.682,6.914-1.372,13.827-2.065,20.739
	c-0.326,3.243-2.353,3.907-5.259,3.781c-3.285-0.143-3.902-2.074-3.599-4.694c1.557-13.462,3.26-26.907,4.733-40.379
	c1.204-11.019,2.156-22.065,3.22-33.1C29.877,94.468,31.467,86.969,31.127,79.302z"/>
<path fill-rule="evenodd" clip-rule="evenodd" fill="#F6953C" d="M15.314,34.802c1.894-16.452,13.064-24.01,26.703-25.504
	c10.469-1.147,22.478,7.684,26.189,18.582c3.785,11.114,2.993,12.206-8.633,12.316c-12.098,0.114-24.204,0.403-36.002-3.022
	C20.892,36.395,18.209,35.632,15.314,34.802z M49.007,24.301c2.55-0.171,5.96-0.678,6.491-4.924
	c0.363-2.901-4.231-5.975-8.525-6.042c-4.228-0.067-7.891,2.49-7.699,5.374C39.479,21.783,43.513,24.341,49.007,24.301z
	 M58.645,25.742c-1.793,0.37-3.258,1.308-3.125,3.253c0.123,1.787,1.335,3.126,3.287,3.081c1.933-0.046,3.134-1.293,3.061-3.208
	C61.796,26.997,60.601,25.879,58.645,25.742z"/>
<path fill-rule="evenodd" clip-rule="evenodd" fill="#F6953C" d="M66.383,48.931c-4.018,10.4-15.527,16.509-27.698,15.163
	c-8.378-0.928-19.717-7.909-21.384-18.994C33.352,49.25,49.404,50.696,66.383,48.931z"/>
<path fill-rule="evenodd" clip-rule="evenodd" fill="#FEFEFE" d="M49.007,24.301c-5.494,0.04-9.529-2.518-9.733-5.592
	c-0.192-2.884,3.472-5.441,7.699-5.374c4.294,0.067,8.888,3.141,8.525,6.042C54.967,23.623,51.557,24.13,49.007,24.301z"/>
<path fill-rule="evenodd" clip-rule="evenodd" fill="#FEFEFE" d="M58.647,25.741c1.954,0.139,3.149,1.256,3.22,3.127
	c0.073,1.915-1.128,3.162-3.061,3.208c-1.951,0.046-3.164-1.294-3.287-3.081C55.387,27.049,56.851,26.112,58.647,25.741z"/>
</svg>
